<svg width="378" height="208" xmlns="http://www.w3.org/2000/svg" xmlns:xlink="http://www.w3.org/1999/xlink" overflow="hidden"><defs><clipPath id="clip0"><rect x="0" y="0" width="378" height="208"/></clipPath><linearGradient x1="127.5" y1="163.631" x2="127.5" y2="181.646" gradientUnits="userSpaceOnUse" spreadMethod="reflect" id="fill1"><stop offset="0" stop-color="#9B9B9B"/><stop offset="0.5" stop-color="#8E8E8E"/><stop offset="1" stop-color="#797979"/></linearGradient><linearGradient x1="143.5" y1="163.631" x2="143.5" y2="181.646" gradientUnits="userSpaceOnUse" spreadMethod="reflect" id="fill2"><stop offset="0" stop-color="#9B9B9B"/><stop offset="0.5" stop-color="#8E8E8E"/><stop offset="1" stop-color="#797979"/></linearGradient><linearGradient x1="159.5" y1="163.631" x2="159.5" y2="181.646" gradientUnits="userSpaceOnUse" spreadMethod="reflect" id="fill3"><stop offset="0" stop-color="#9B9B9B"/><stop offset="0.5" stop-color="#8E8E8E"/><stop offset="1" stop-color="#797979"/></linearGradient><linearGradient x1="175.5" y1="163.631" x2="175.5" y2="181.646" gradientUnits="userSpaceOnUse" spreadMethod="reflect" id="fill4"><stop offset="0" stop-color="#9B9B9B"/><stop offset="0.5" stop-color="#8E8E8E"/><stop offset="1" stop-color="#797979"/></linearGradient><linearGradient x1="191.5" y1="163.631" x2="191.5" y2="181.646" gradientUnits="userSpaceOnUse" spreadMethod="reflect" id="fill5"><stop offset="0" stop-color="#9B9B9B"/><stop offset="0.5" stop-color="#8E8E8E"/><stop offset="1" stop-color="#797979"/></linearGradient><linearGradient x1="207.5" y1="163.631" x2="207.5" y2="181.646" gradientUnits="userSpaceOnUse" spreadMethod="reflect" id="fill6"><stop offset="0" stop-color="#9B9B9B"/><stop offset="0.5" stop-color="#8E8E8E"/><stop offset="1" stop-color="#797979"/></linearGradient><linearGradient x1="223.5" y1="163.631" x2="223.5" y2="181.646" gradientUnits="userSpaceOnUse" spreadMethod="reflect" id="fill7"><stop offset="0" stop-color="#9B9B9B"/><stop offset="0.5" stop-color="#8E8E8E"/><stop offset="1" stop-color="#797979"/></linearGradient><linearGradient x1="239.5" y1="163.631" x2="239.5" y2="181.646" gradientUnits="userSpaceOnUse" spreadMethod="reflect" id="fill8"><stop offset="0" stop-color="#9B9B9B"/><stop offset="0.5" stop-color="#8E8E8E"/><stop offset="1" stop-color="#797979"/></linearGradient><linearGradient x1="254.5" y1="163.631" x2="254.5" y2="181.646" gradientUnits="userSpaceOnUse" spreadMethod="reflect" id="fill9"><stop offset="0" stop-color="#9B9B9B"/><stop offset="0.5" stop-color="#8E8E8E"/><stop offset="1" stop-color="#797979"/></linearGradient><linearGradient x1="270.5" y1="163.631" x2="270.5" y2="181.646" gradientUnits="userSpaceOnUse" spreadMethod="reflect" id="fill10"><stop offset="0" stop-color="#9B9B9B"/><stop offset="0.5" stop-color="#8E8E8E"/><stop offset="1" stop-color="#797979"/></linearGradient><linearGradient x1="286.5" y1="163.631" x2="286.5" y2="181.646" gradientUnits="userSpaceOnUse" spreadMethod="reflect" id="fill11"><stop offset="0" stop-color="#9B9B9B"/><stop offset="0.5" stop-color="#8E8E8E"/><stop offset="1" stop-color="#797979"/></linearGradient><linearGradient x1="302.5" y1="163.631" x2="302.5" y2="181.646" gradientUnits="userSpaceOnUse" spreadMethod="reflect" id="fill12"><stop offset="0" stop-color="#9B9B9B"/><stop offset="0.5" stop-color="#8E8E8E"/><stop offset="1" stop-color="#797979"/></linearGradient><linearGradient x1="127.5" y1="35.5285" x2="127.5" y2="52.5422" gradientUnits="userSpaceOnUse" spreadMethod="reflect" id="fill13"><stop offset="0" stop-color="#9B9B9B"/><stop offset="0.5" stop-color="#8E8E8E"/><stop offset="1" stop-color="#797979"/></linearGradient><linearGradient x1="143.5" y1="35.5285" x2="143.5" y2="52.5422" gradientUnits="userSpaceOnUse" spreadMethod="reflect" id="fill14"><stop offset="0" stop-color="#9B9B9B"/><stop offset="0.5" stop-color="#8E8E8E"/><stop offset="1" stop-color="#797979"/></linearGradient><linearGradient x1="159.5" y1="35.5285" x2="159.5" y2="52.5422" gradientUnits="userSpaceOnUse" spreadMethod="reflect" id="fill15"><stop offset="0" stop-color="#9B9B9B"/><stop offset="0.5" stop-color="#8E8E8E"/><stop offset="1" stop-color="#797979"/></linearGradient><linearGradient x1="175.5" y1="35.5285" x2="175.5" y2="52.5422" gradientUnits="userSpaceOnUse" spreadMethod="reflect" id="fill16"><stop offset="0" stop-color="#9B9B9B"/><stop offset="0.5" stop-color="#8E8E8E"/><stop offset="1" stop-color="#797979"/></linearGradient><linearGradient x1="191.5" y1="35.5285" x2="191.5" y2="52.5422" gradientUnits="userSpaceOnUse" spreadMethod="reflect" id="fill17"><stop offset="0" stop-color="#9B9B9B"/><stop offset="0.5" stop-color="#8E8E8E"/><stop offset="1" stop-color="#797979"/></linearGradient><linearGradient x1="207.5" y1="35.5285" x2="207.5" y2="52.5422" gradientUnits="userSpaceOnUse" spreadMethod="reflect" id="fill18"><stop offset="0" stop-color="#9B9B9B"/><stop offset="0.5" stop-color="#8E8E8E"/><stop offset="1" stop-color="#797979"/></linearGradient><linearGradient x1="223.5" y1="35.5285" x2="223.5" y2="52.5422" gradientUnits="userSpaceOnUse" spreadMethod="reflect" id="fill19"><stop offset="0" stop-color="#9B9B9B"/><stop offset="0.5" stop-color="#8E8E8E"/><stop offset="1" stop-color="#797979"/></linearGradient><linearGradient x1="239.5" y1="35.5285" x2="239.5" y2="52.5422" gradientUnits="userSpaceOnUse" spreadMethod="reflect" id="fill20"><stop offset="0" stop-color="#9B9B9B"/><stop offset="0.5" stop-color="#8E8E8E"/><stop offset="1" stop-color="#797979"/></linearGradient><linearGradient x1="254.5" y1="35.5285" x2="254.5" y2="52.5422" gradientUnits="userSpaceOnUse" spreadMethod="reflect" id="fill21"><stop offset="0" stop-color="#9B9B9B"/><stop offset="0.5" stop-color="#8E8E8E"/><stop offset="1" stop-color="#797979"/></linearGradient><linearGradient x1="270.5" y1="35.5285" x2="270.5" y2="52.5422" gradientUnits="userSpaceOnUse" spreadMethod="reflect" id="fill22"><stop offset="0" stop-color="#9B9B9B"/><stop offset="0.5" stop-color="#8E8E8E"/><stop offset="1" stop-color="#797979"/></linearGradient><linearGradient x1="286.5" y1="35.5285" x2="286.5" y2="52.5422" gradientUnits="userSpaceOnUse" spreadMethod="reflect" id="fill23"><stop offset="0" stop-color="#9B9B9B"/><stop offset="0.5" stop-color="#8E8E8E"/><stop offset="1" stop-color="#797979"/></linearGradient><linearGradient x1="302.5" y1="35.5285" x2="302.5" y2="52.5422" gradientUnits="userSpaceOnUse" spreadMethod="reflect" id="fill24"><stop offset="0" stop-color="#9B9B9B"/><stop offset="0.5" stop-color="#8E8E8E"/><stop offset="1" stop-color="#797979"/></linearGradient><linearGradient x1="247.5" y1="102.582" x2="247.5" y2="119.596" gradientUnits="userSpaceOnUse" spreadMethod="reflect" id="fill25"><stop offset="0" stop-color="#9B9B9B"/><stop offset="0.5" stop-color="#8E8E8E"/><stop offset="1" stop-color="#797979"/></linearGradient><linearGradient x1="263.5" y1="102.582" x2="263.5" y2="119.596" gradientUnits="userSpaceOnUse" spreadMethod="reflect" id="fill26"><stop offset="0" stop-color="#9B9B9B"/><stop offset="0.5" stop-color="#8E8E8E"/><stop offset="1" stop-color="#797979"/></linearGradient><linearGradient x1="279.5" y1="102.582" x2="279.5" y2="119.596" gradientUnits="userSpaceOnUse" spreadMethod="reflect" id="fill27"><stop offset="0" stop-color="#9B9B9B"/><stop offset="0.5" stop-color="#8E8E8E"/><stop offset="1" stop-color="#797979"/></linearGradient><linearGradient x1="295.5" y1="102.582" x2="295.5" y2="119.596" gradientUnits="userSpaceOnUse" spreadMethod="reflect" id="fill28"><stop offset="0" stop-color="#9B9B9B"/><stop offset="0.5" stop-color="#8E8E8E"/><stop offset="1" stop-color="#797979"/></linearGradient></defs><g clip-path="url(#clip0)"><rect x="0" y="0" width="378" height="208.167" fill="#FFFFFF"/><rect x="119.5" y="163.631" width="16" height="18.0144" stroke="#000000" stroke-width="0.666667" stroke-miterlimit="8" fill="url(#fill1)"/><rect x="135.5" y="163.631" width="16" height="18.0144" stroke="#000000" stroke-width="0.666667" stroke-miterlimit="8" fill="url(#fill2)"/><rect x="151.5" y="163.631" width="16" height="18.0144" stroke="#000000" stroke-width="0.666667" stroke-miterlimit="8" fill="url(#fill3)"/><rect x="167.5" y="163.631" width="16" height="18.0144" stroke="#000000" stroke-width="0.666667" stroke-miterlimit="8" fill="url(#fill4)"/><rect x="183.5" y="163.631" width="16" height="18.0144" stroke="#000000" stroke-width="0.666667" stroke-miterlimit="8" fill="url(#fill5)"/><rect x="199.5" y="163.631" width="16" height="18.0144" stroke="#000000" stroke-width="0.666667" stroke-miterlimit="8" fill="url(#fill6)"/><rect x="215.5" y="163.631" width="16" height="18.0144" stroke="#000000" stroke-width="0.666667" stroke-miterlimit="8" fill="url(#fill7)"/><rect x="231.5" y="163.631" width="16" height="18.0144" stroke="#000000" stroke-width="0.666667" stroke-miterlimit="8" fill="url(#fill8)"/><rect x="246.5" y="163.631" width="16" height="18.0144" stroke="#000000" stroke-width="0.666667" stroke-miterlimit="8" fill="url(#fill9)"/><rect x="262.5" y="163.631" width="16" height="18.0144" stroke="#000000" stroke-width="0.666667" stroke-miterlimit="8" fill="url(#fill10)"/><rect x="278.5" y="163.631" width="16" height="18.0144" stroke="#000000" stroke-width="0.666667" stroke-miterlimit="8" fill="url(#fill11)"/><rect x="294.5" y="163.631" width="16" height="18.0144" stroke="#000000" stroke-width="0.666667" stroke-miterlimit="8" fill="url(#fill12)"/><path d="M1.5-2.12536e-06 1.50009 66.5958-1.49991 66.5958-1.5 2.12536e-06ZM4.50009 65.0958 0.000104987 74.0958-4.49991 65.0959Z" transform="matrix(1 0 0 -1.0008 189.5 163.727)"/><text font-family="Times New Roman,Times New Roman_MSFontService,sans-serif" font-weight="400" font-size="19" transform="matrix(1 0 0 1.0008 32.4906 168)">Original<tspan font-size="19" x="-7.25333" y="21.9824">Prediction</tspan></text><rect x="119.5" y="35.5285" width="16" height="17.0136" stroke="#000000" stroke-width="0.666667" stroke-miterlimit="8" fill="url(#fill13)"/><rect x="135.5" y="35.5285" width="16" height="17.0136" stroke="#000000" stroke-width="0.666667" stroke-miterlimit="8" fill="url(#fill14)"/><rect x="151.5" y="35.5285" width="16" height="17.0136" stroke="#000000" stroke-width="0.666667" stroke-miterlimit="8" fill="url(#fill15)"/><rect x="167.5" y="35.5285" width="16" height="17.0136" stroke="#000000" stroke-width="0.666667" stroke-miterlimit="8" fill="url(#fill16)"/><rect x="183.5" y="35.5285" width="16" height="17.0136" stroke="#000000" stroke-width="0.666667" stroke-miterlimit="8" fill="url(#fill17)"/><rect x="199.5" y="35.5285" width="16" height="17.0136" stroke="#000000" stroke-width="0.666667" stroke-miterlimit="8" fill="url(#fill18)"/><rect x="215.5" y="35.5285" width="16" height="17.0136" stroke="#000000" stroke-width="0.666667" stroke-miterlimit="8" fill="url(#fill19)"/><rect x="231.5" y="35.5285" width="16" height="17.0136" stroke="#000000" stroke-width="0.666667" stroke-miterlimit="8" fill="url(#fill20)"/><rect x="246.5" y="35.5285" width="16" height="17.0136" stroke="#000000" stroke-width="0.666667" stroke-miterlimit="8" fill="url(#fill21)"/><rect x="262.5" y="35.5285" width="16" height="17.0136" stroke="#000000" stroke-width="0.666667" stroke-miterlimit="8" fill="url(#fill22)"/><rect x="278.5" y="35.5285" width="16" height="17.0136" stroke="#000000" stroke-width="0.666667" stroke-miterlimit="8" fill="url(#fill23)"/><rect x="294.5" y="35.5285" width="16" height="17.0136" stroke="#000000" stroke-width="0.666667" stroke-miterlimit="8" fill="url(#fill24)"/><rect x="239.5" y="102.582" width="16" height="17.0136" stroke="#000000" stroke-width="0.666667" stroke-miterlimit="8" fill="url(#fill25)"/><rect x="255.5" y="102.582" width="16" height="17.0136" stroke="#000000" stroke-width="0.666667" stroke-miterlimit="8" fill="url(#fill26)"/><rect x="271.5" y="102.582" width="16" height="17.0136" stroke="#000000" stroke-width="0.666667" stroke-miterlimit="8" fill="url(#fill27)"/><rect x="287.5" y="102.582" width="16" height="17.0136" stroke="#000000" stroke-width="0.666667" stroke-miterlimit="8" fill="url(#fill28)"/><path d="M0.789408-1.27547 66.7354 39.5394 65.1566 42.0903-0.789408 1.27547ZM67.0387 36.199 72.3234 44.7619 62.3023 43.8519Z" transform="matrix(1 0 0 -1.0008 191.5 164.394)"/><path d="M263.28 103.37 205.002 81.594 206.051 78.7812 264.33 100.557ZM205.358 84.9318 198.5 77.5622 208.506 76.4935Z"/><path d="M182.5 80.5646C182.5 75.5901 186.082 71.5574 190.5 71.5574 194.918 71.5574 198.5 75.5901 198.5 80.5646 198.5 85.5392 194.918 89.5718 190.5 89.5718 186.082 89.5718 182.5 85.5392 182.5 80.5646Z" stroke="#000000" stroke-width="3" stroke-miterlimit="8" fill="#FFFFFF" fill-rule="evenodd"/><text font-family="Times New Roman,Times New Roman_MSFontService,sans-serif" font-weight="700" font-size="16" transform="matrix(1 0 0 1.0008 185.538 86)">+</text><path d="M1.5-8.07615e-06 1.50006 11.9994-1.49994 11.9994-1.5 8.07615e-06ZM4.50006 10.4994 0.000104987 19.4994-4.49994 10.4994Z" transform="matrix(1 0 0 -1.0008 190.5 72.0572)"/><text font-family="Times New Roman,Times New Roman_MSFontService,sans-serif" font-weight="400" font-size="13" transform="matrix(1 0 0 1.0008 250.871 143)">Activation <tspan font-size="13" x="4.5" y="15.9872">Function</tspan><tspan font-size="13" x="61.5096" y="-33.9728">Bottleneck</tspan><tspan font-size="13" x="74.7563" y="-17.9856">Layer</tspan><tspan font-size="19" x="-207.014" y="-110.911">Final</tspan><tspan font-size="19" x="-226.181" y="-88.9287">Prediction</tspan><tspan font-size="13" x="0" y="-66.9463">Activation </tspan><tspan font-size="13" x="4.5" y="-50.9591">Function</tspan></text></g></svg>