<svg width="605" height="454" xmlns="http://www.w3.org/2000/svg" xmlns:xlink="http://www.w3.org/1999/xlink" overflow="hidden"><defs><filter id="fx0" x="-10%" y="-10%" width="120%" height="120%" filterUnits="userSpaceOnUse" primitiveUnits="userSpaceOnUse"><feComponentTransfer color-interpolation-filters="sRGB"><feFuncR type="discrete" tableValues="0 0"/><feFuncG type="discrete" tableValues="0 0"/><feFuncB type="discrete" tableValues="0 0"/><feFuncA type="linear" slope="0.631373" intercept="0"/></feComponentTransfer><feGaussianBlur stdDeviation="2.0011 2.00221"/></filter><filter id="fx1" x="-10%" y="-10%" width="120%" height="120%" filterUnits="userSpaceOnUse" primitiveUnits="userSpaceOnUse"><feComponentTransfer color-interpolation-filters="sRGB"><feFuncR type="discrete" tableValues="0 0"/><feFuncG type="discrete" tableValues="0 0"/><feFuncB type="discrete" tableValues="0 0"/><feFuncA type="linear" slope="0.631373" intercept="0"/></feComponentTransfer><feGaussianBlur stdDeviation="2.0011 2.00221"/></filter><filter id="fx2" x="-10%" y="-10%" width="120%" height="120%" filterUnits="userSpaceOnUse" primitiveUnits="userSpaceOnUse"><feComponentTransfer color-interpolation-filters="sRGB"><feFuncR type="discrete" tableValues="0 0"/><feFuncG type="discrete" tableValues="0 0"/><feFuncB type="discrete" tableValues="0 0"/><feFuncA type="linear" slope="0.631373" intercept="0"/></feComponentTransfer><feGaussianBlur stdDeviation="2.0011 2.00221"/></filter><filter id="fx3" x="-10%" y="-10%" width="120%" height="120%" filterUnits="userSpaceOnUse" primitiveUnits="userSpaceOnUse"><feComponentTransfer color-interpolation-filters="sRGB"><feFuncR type="discrete" tableValues="0 0"/><feFuncG type="discrete" tableValues="0 0"/><feFuncB type="discrete" tableValues="0 0"/><feFuncA type="linear" slope="0.631373" intercept="0"/></feComponentTransfer><feGaussianBlur stdDeviation="2.0011 2.00221"/></filter><filter id="fx4" x="-10%" y="-10%" width="120%" height="120%" filterUnits="userSpaceOnUse" primitiveUnits="userSpaceOnUse"><feComponentTransfer color-interpolation-filters="sRGB"><feFuncR type="discrete" tableValues="0 0"/><feFuncG type="discrete" tableValues="0 0"/><feFuncB type="discrete" tableValues="0 0"/><feFuncA type="linear" slope="0.631373" intercept="0"/></feComponentTransfer><feGaussianBlur stdDeviation="2.0011 2.00221"/></filter><filter id="fx5" x="-10%" y="-10%" width="120%" height="120%" filterUnits="userSpaceOnUse" primitiveUnits="userSpaceOnUse"><feComponentTransfer color-interpolation-filters="sRGB"><feFuncR type="discrete" tableValues="0 0"/><feFuncG type="discrete" tableValues="0 0"/><feFuncB type="discrete" tableValues="0 0"/><feFuncA type="linear" slope="0.631373" intercept="0"/></feComponentTransfer><feGaussianBlur stdDeviation="2.0011 2.00221"/></filter><filter id="fx6" x="-10%" y="-10%" width="120%" height="120%" filterUnits="userSpaceOnUse" primitiveUnits="userSpaceOnUse"><feComponentTransfer color-interpolation-filters="sRGB"><feFuncR type="discrete" tableValues="0 0"/><feFuncG type="discrete" tableValues="0 0"/><feFuncB type="discrete" tableValues="0 0"/><feFuncA type="linear" slope="0.631373" intercept="0"/></feComponentTransfer><feGaussianBlur stdDeviation="2.0011 2.00221"/></filter><filter id="fx7" x="-10%" y="-10%" width="120%" height="120%" filterUnits="userSpaceOnUse" primitiveUnits="userSpaceOnUse"><feComponentTransfer color-interpolation-filters="sRGB"><feFuncR type="discrete" tableValues="0 0"/><feFuncG type="discrete" tableValues="0 0"/><feFuncB type="discrete" tableValues="0 0"/><feFuncA type="linear" slope="0.631373" intercept="0"/></feComponentTransfer><feGaussianBlur stdDeviation="2.0011 2.00221"/></filter><filter id="fx8" x="-10%" y="-10%" width="120%" height="120%" filterUnits="userSpaceOnUse" primitiveUnits="userSpaceOnUse"><feComponentTransfer color-interpolation-filters="sRGB"><feFuncR type="discrete" tableValues="0 0"/><feFuncG type="discrete" tableValues="0 0"/><feFuncB type="discrete" tableValues="0 0"/><feFuncA type="linear" slope="0.631373" intercept="0"/></feComponentTransfer><feGaussianBlur stdDeviation="2.0011 2.00221"/></filter><filter id="fx9" x="-10%" y="-10%" width="120%" height="120%" filterUnits="userSpaceOnUse" primitiveUnits="userSpaceOnUse"><feComponentTransfer color-interpolation-filters="sRGB"><feFuncR type="discrete" tableValues="0 0"/><feFuncG type="discrete" tableValues="0 0"/><feFuncB type="discrete" tableValues="0 0"/><feFuncA type="linear" slope="0.631373" intercept="0"/></feComponentTransfer><feGaussianBlur stdDeviation="2.0011 2.00221"/></filter><filter id="fx10" x="-10%" y="-10%" width="120%" height="120%" filterUnits="userSpaceOnUse" primitiveUnits="userSpaceOnUse"><feComponentTransfer color-interpolation-filters="sRGB"><feFuncR type="discrete" tableValues="0 0"/><feFuncG type="discrete" tableValues="0 0"/><feFuncB type="discrete" tableValues="0 0"/><feFuncA type="linear" slope="0.631373" intercept="0"/></feComponentTransfer><feGaussianBlur stdDeviation="2.0011 2.00221"/></filter><filter id="fx11" x="-10%" y="-10%" width="120%" height="120%" filterUnits="userSpaceOnUse" primitiveUnits="userSpaceOnUse"><feComponentTransfer color-interpolation-filters="sRGB"><feFuncR type="discrete" tableValues="0 0"/><feFuncG type="discrete" tableValues="0 0"/><feFuncB type="discrete" tableValues="0 0"/><feFuncA type="linear" slope="0.631373" intercept="0"/></feComponentTransfer><feGaussianBlur stdDeviation="2.0011 2.00221"/></filter><clipPath id="clip12"><rect x="0" y="0" width="605" height="454"/></clipPath><linearGradient x1="301" y1="313.673" x2="301" y2="329.682" gradientUnits="userSpaceOnUse" spreadMethod="reflect" id="fill13"><stop offset="0" stop-color="#A8B7DF"/><stop offset="0.5" stop-color="#9AABD9"/><stop offset="1" stop-color="#879ED7"/></linearGradient><linearGradient x1="301" y1="329.682" x2="301" y2="345.69" gradientUnits="userSpaceOnUse" spreadMethod="reflect" id="fill14"><stop offset="0" stop-color="#A8B7DF"/><stop offset="0.5" stop-color="#9AABD9"/><stop offset="1" stop-color="#879ED7"/></linearGradient><linearGradient x1="301" y1="345.69" x2="301" y2="361.699" gradientUnits="userSpaceOnUse" spreadMethod="reflect" id="fill15"><stop offset="0" stop-color="#A8B7DF"/><stop offset="0.5" stop-color="#9AABD9"/><stop offset="1" stop-color="#879ED7"/></linearGradient><linearGradient x1="301" y1="361.699" x2="301" y2="377.708" gradientUnits="userSpaceOnUse" spreadMethod="reflect" id="fill16"><stop offset="0" stop-color="#A8B7DF"/><stop offset="0.5" stop-color="#9AABD9"/><stop offset="1" stop-color="#879ED7"/></linearGradient><linearGradient x1="301" y1="377.708" x2="301" y2="393.717" gradientUnits="userSpaceOnUse" spreadMethod="reflect" id="fill17"><stop offset="0" stop-color="#A8B7DF"/><stop offset="0.5" stop-color="#9AABD9"/><stop offset="1" stop-color="#879ED7"/></linearGradient><linearGradient x1="301" y1="393.717" x2="301" y2="409.726" gradientUnits="userSpaceOnUse" spreadMethod="reflect" id="fill18"><stop offset="0" stop-color="#A8B7DF"/><stop offset="0.5" stop-color="#9AABD9"/><stop offset="1" stop-color="#879ED7"/></linearGradient><linearGradient x1="374.5" y1="313.673" x2="374.5" y2="329.682" gradientUnits="userSpaceOnUse" spreadMethod="reflect" id="fill19"><stop offset="0" stop-color="#B5D5A7"/><stop offset="0.5" stop-color="#AACE99"/><stop offset="1" stop-color="#9CCA86"/></linearGradient><linearGradient x1="374.5" y1="329.682" x2="374.5" y2="345.69" gradientUnits="userSpaceOnUse" spreadMethod="reflect" id="fill20"><stop offset="0" stop-color="#B5D5A7"/><stop offset="0.5" stop-color="#AACE99"/><stop offset="1" stop-color="#9CCA86"/></linearGradient><linearGradient x1="374.5" y1="345.69" x2="374.5" y2="361.699" gradientUnits="userSpaceOnUse" spreadMethod="reflect" id="fill21"><stop offset="0" stop-color="#B5D5A7"/><stop offset="0.5" stop-color="#AACE99"/><stop offset="1" stop-color="#9CCA86"/></linearGradient><linearGradient x1="374.5" y1="361.699" x2="374.5" y2="377.708" gradientUnits="userSpaceOnUse" spreadMethod="reflect" id="fill22"><stop offset="0" stop-color="#B5D5A7"/><stop offset="0.5" stop-color="#AACE99"/><stop offset="1" stop-color="#9CCA86"/></linearGradient><linearGradient x1="374.5" y1="377.708" x2="374.5" y2="393.717" gradientUnits="userSpaceOnUse" spreadMethod="reflect" id="fill23"><stop offset="0" stop-color="#B5D5A7"/><stop offset="0.5" stop-color="#AACE99"/><stop offset="1" stop-color="#9CCA86"/></linearGradient><linearGradient x1="374.5" y1="393.717" x2="374.5" y2="409.726" gradientUnits="userSpaceOnUse" spreadMethod="reflect" id="fill24"><stop offset="0" stop-color="#B5D5A7"/><stop offset="0.5" stop-color="#AACE99"/><stop offset="1" stop-color="#9CCA86"/></linearGradient><linearGradient x1="452" y1="313.673" x2="452" y2="329.682" gradientUnits="userSpaceOnUse" spreadMethod="reflect" id="fill25"><stop offset="0" stop-color="#FFDD9C"/><stop offset="0.5" stop-color="#FFD78E"/><stop offset="1" stop-color="#FFD479"/></linearGradient><linearGradient x1="452" y1="329.682" x2="452" y2="345.69" gradientUnits="userSpaceOnUse" spreadMethod="reflect" id="fill26"><stop offset="0" stop-color="#FFDD9C"/><stop offset="0.5" stop-color="#FFD78E"/><stop offset="1" stop-color="#FFD479"/></linearGradient><linearGradient x1="452" y1="345.69" x2="452" y2="361.699" gradientUnits="userSpaceOnUse" spreadMethod="reflect" id="fill27"><stop offset="0" stop-color="#FFDD9C"/><stop offset="0.5" stop-color="#FFD78E"/><stop offset="1" stop-color="#FFD479"/></linearGradient><linearGradient x1="452" y1="361.699" x2="452" y2="377.708" gradientUnits="userSpaceOnUse" spreadMethod="reflect" id="fill28"><stop offset="0" stop-color="#FFDD9C"/><stop offset="0.5" stop-color="#FFD78E"/><stop offset="1" stop-color="#FFD479"/></linearGradient><linearGradient x1="452" y1="377.708" x2="452" y2="393.717" gradientUnits="userSpaceOnUse" spreadMethod="reflect" id="fill29"><stop offset="0" stop-color="#FFDD9C"/><stop offset="0.5" stop-color="#FFD78E"/><stop offset="1" stop-color="#FFD479"/></linearGradient><linearGradient x1="452" y1="393.717" x2="452" y2="409.726" gradientUnits="userSpaceOnUse" spreadMethod="reflect" id="fill30"><stop offset="0" stop-color="#FFDD9C"/><stop offset="0.5" stop-color="#FFD78E"/><stop offset="1" stop-color="#FFD479"/></linearGradient><linearGradient x1="522" y1="313.673" x2="522" y2="329.682" gradientUnits="userSpaceOnUse" spreadMethod="reflect" id="fill31"><stop offset="0" stop-color="#F7BDA4"/><stop offset="0.5" stop-color="#F5B195"/><stop offset="1" stop-color="#F8A581"/></linearGradient><linearGradient x1="522" y1="329.682" x2="522" y2="345.69" gradientUnits="userSpaceOnUse" spreadMethod="reflect" id="fill32"><stop offset="0" stop-color="#F7BDA4"/><stop offset="0.5" stop-color="#F5B195"/><stop offset="1" stop-color="#F8A581"/></linearGradient><linearGradient x1="522" y1="345.69" x2="522" y2="361.699" gradientUnits="userSpaceOnUse" spreadMethod="reflect" id="fill33"><stop offset="0" stop-color="#F7BDA4"/><stop offset="0.5" stop-color="#F5B195"/><stop offset="1" stop-color="#F8A581"/></linearGradient><linearGradient x1="522" y1="361.699" x2="522" y2="377.708" gradientUnits="userSpaceOnUse" spreadMethod="reflect" id="fill34"><stop offset="0" stop-color="#F7BDA4"/><stop offset="0.5" stop-color="#F5B195"/><stop offset="1" stop-color="#F8A581"/></linearGradient><linearGradient x1="522" y1="377.708" x2="522" y2="393.717" gradientUnits="userSpaceOnUse" spreadMethod="reflect" id="fill35"><stop offset="0" stop-color="#F7BDA4"/><stop offset="0.5" stop-color="#F5B195"/><stop offset="1" stop-color="#F8A581"/></linearGradient><linearGradient x1="522" y1="393.717" x2="522" y2="409.726" gradientUnits="userSpaceOnUse" spreadMethod="reflect" id="fill36"><stop offset="0" stop-color="#F7BDA4"/><stop offset="0.5" stop-color="#F5B195"/><stop offset="1" stop-color="#F8A581"/></linearGradient><linearGradient x1="220.5" y1="257.642" x2="220.5" y2="274.651" gradientUnits="userSpaceOnUse" spreadMethod="reflect" id="fill37"><stop offset="0" stop-color="#9B9B9B"/><stop offset="0.5" stop-color="#8E8E8E"/><stop offset="1" stop-color="#797979"/></linearGradient><linearGradient x1="236.5" y1="257.642" x2="236.5" y2="274.651" gradientUnits="userSpaceOnUse" spreadMethod="reflect" id="fill38"><stop offset="0" stop-color="#9B9B9B"/><stop offset="0.5" stop-color="#8E8E8E"/><stop offset="1" stop-color="#797979"/></linearGradient><linearGradient x1="252.5" y1="257.642" x2="252.5" y2="274.651" gradientUnits="userSpaceOnUse" spreadMethod="reflect" id="fill39"><stop offset="0" stop-color="#9B9B9B"/><stop offset="0.5" stop-color="#8E8E8E"/><stop offset="1" stop-color="#797979"/></linearGradient><linearGradient x1="268.5" y1="257.642" x2="268.5" y2="274.651" gradientUnits="userSpaceOnUse" spreadMethod="reflect" id="fill40"><stop offset="0" stop-color="#9B9B9B"/><stop offset="0.5" stop-color="#8E8E8E"/><stop offset="1" stop-color="#797979"/></linearGradient><linearGradient x1="196.5" y1="173.596" x2="196.5" y2="190.605" gradientUnits="userSpaceOnUse" spreadMethod="reflect" id="fill41"><stop offset="0" stop-color="#9B9B9B"/><stop offset="0.5" stop-color="#8E8E8E"/><stop offset="1" stop-color="#797979"/></linearGradient><linearGradient x1="212.5" y1="173.596" x2="212.5" y2="190.605" gradientUnits="userSpaceOnUse" spreadMethod="reflect" id="fill42"><stop offset="0" stop-color="#9B9B9B"/><stop offset="0.5" stop-color="#8E8E8E"/><stop offset="1" stop-color="#797979"/></linearGradient><linearGradient x1="228.5" y1="173.596" x2="228.5" y2="190.605" gradientUnits="userSpaceOnUse" spreadMethod="reflect" id="fill43"><stop offset="0" stop-color="#9B9B9B"/><stop offset="0.5" stop-color="#8E8E8E"/><stop offset="1" stop-color="#797979"/></linearGradient><linearGradient x1="244.5" y1="173.596" x2="244.5" y2="190.605" gradientUnits="userSpaceOnUse" spreadMethod="reflect" id="fill44"><stop offset="0" stop-color="#9B9B9B"/><stop offset="0.5" stop-color="#8E8E8E"/><stop offset="1" stop-color="#797979"/></linearGradient><linearGradient x1="508.5" y1="257.642" x2="508.5" y2="274.651" gradientUnits="userSpaceOnUse" spreadMethod="reflect" id="fill45"><stop offset="0" stop-color="#D2D2D2"/><stop offset="0.5" stop-color="#C8C8C8"/><stop offset="1" stop-color="#C0C0C0"/></linearGradient><linearGradient x1="524.5" y1="257.642" x2="524.5" y2="274.651" gradientUnits="userSpaceOnUse" spreadMethod="reflect" id="fill46"><stop offset="0" stop-color="#D2D2D2"/><stop offset="0.5" stop-color="#C8C8C8"/><stop offset="1" stop-color="#C0C0C0"/></linearGradient><linearGradient x1="540.5" y1="257.642" x2="540.5" y2="274.651" gradientUnits="userSpaceOnUse" spreadMethod="reflect" id="fill47"><stop offset="0" stop-color="#D2D2D2"/><stop offset="0.5" stop-color="#C8C8C8"/><stop offset="1" stop-color="#C0C0C0"/></linearGradient><linearGradient x1="556.5" y1="257.642" x2="556.5" y2="274.651" gradientUnits="userSpaceOnUse" spreadMethod="reflect" id="fill48"><stop offset="0" stop-color="#D2D2D2"/><stop offset="0.5" stop-color="#C8C8C8"/><stop offset="1" stop-color="#C0C0C0"/></linearGradient><linearGradient x1="332.5" y1="173.596" x2="332.5" y2="190.605" gradientUnits="userSpaceOnUse" spreadMethod="reflect" id="fill49"><stop offset="0" stop-color="#D2D2D2"/><stop offset="0.5" stop-color="#C8C8C8"/><stop offset="1" stop-color="#C0C0C0"/></linearGradient><linearGradient x1="348.5" y1="173.596" x2="348.5" y2="190.605" gradientUnits="userSpaceOnUse" spreadMethod="reflect" id="fill50"><stop offset="0" stop-color="#D2D2D2"/><stop offset="0.5" stop-color="#C8C8C8"/><stop offset="1" stop-color="#C0C0C0"/></linearGradient><linearGradient x1="364.5" y1="173.596" x2="364.5" y2="190.605" gradientUnits="userSpaceOnUse" spreadMethod="reflect" id="fill51"><stop offset="0" stop-color="#D2D2D2"/><stop offset="0.5" stop-color="#C8C8C8"/><stop offset="1" stop-color="#C0C0C0"/></linearGradient><linearGradient x1="380.5" y1="173.596" x2="380.5" y2="190.605" gradientUnits="userSpaceOnUse" spreadMethod="reflect" id="fill52"><stop offset="0" stop-color="#D2D2D2"/><stop offset="0.5" stop-color="#C8C8C8"/><stop offset="1" stop-color="#C0C0C0"/></linearGradient><clipPath id="clip53"><rect x="-2" y="1" width="35" height="34"/></clipPath><clipPath id="clip54"><rect x="0" y="0" width="32" height="33"/></clipPath><linearGradient x1="357" y1="118.065" x2="357" y2="135.074" gradientUnits="userSpaceOnUse" spreadMethod="reflect" id="fill55"><stop offset="0" stop-color="#F18C55"/><stop offset="0.5" stop-color="#F67B28"/><stop offset="1" stop-color="#E56B17"/></linearGradient><clipPath id="clip56"><rect x="1" y="1" width="32" height="34"/></clipPath><clipPath id="clip57"><rect x="0" y="0" width="32" height="33"/></clipPath><linearGradient x1="373" y1="118.065" x2="373" y2="135.074" gradientUnits="userSpaceOnUse" spreadMethod="reflect" id="fill58"><stop offset="0" stop-color="#F18C55"/><stop offset="0.5" stop-color="#F67B28"/><stop offset="1" stop-color="#E56B17"/></linearGradient><clipPath id="clip59"><rect x="1" y="1" width="32" height="34"/></clipPath><clipPath id="clip60"><rect x="0" y="0" width="32" height="33"/></clipPath><linearGradient x1="389" y1="118.065" x2="389" y2="135.074" gradientUnits="userSpaceOnUse" spreadMethod="reflect" id="fill61"><stop offset="0" stop-color="#F18C55"/><stop offset="0.5" stop-color="#F67B28"/><stop offset="1" stop-color="#E56B17"/></linearGradient><clipPath id="clip62"><rect x="1" y="1" width="32" height="34"/></clipPath><clipPath id="clip63"><rect x="0" y="0" width="32" height="33"/></clipPath><linearGradient x1="405" y1="118.065" x2="405" y2="135.074" gradientUnits="userSpaceOnUse" spreadMethod="reflect" id="fill64"><stop offset="0" stop-color="#F18C55"/><stop offset="0.5" stop-color="#F67B28"/><stop offset="1" stop-color="#E56B17"/></linearGradient><clipPath id="clip65"><rect x="1" y="1" width="32" height="34"/></clipPath><clipPath id="clip66"><rect x="0" y="0" width="32" height="33"/></clipPath><linearGradient x1="421" y1="118.065" x2="421" y2="135.074" gradientUnits="userSpaceOnUse" spreadMethod="reflect" id="fill67"><stop offset="0" stop-color="#81B861"/><stop offset="0.5" stop-color="#6FB242"/><stop offset="1" stop-color="#61A235"/></linearGradient><clipPath id="clip68"><rect x="1" y="1" width="32" height="34"/></clipPath><clipPath id="clip69"><rect x="0" y="0" width="32" height="33"/></clipPath><linearGradient x1="437" y1="118.065" x2="437" y2="135.074" gradientUnits="userSpaceOnUse" spreadMethod="reflect" id="fill70"><stop offset="0" stop-color="#81B861"/><stop offset="0.5" stop-color="#6FB242"/><stop offset="1" stop-color="#61A235"/></linearGradient><clipPath id="clip71"><rect x="1" y="1" width="32" height="34"/></clipPath><clipPath id="clip72"><rect x="0" y="0" width="32" height="33"/></clipPath><linearGradient x1="453" y1="118.065" x2="453" y2="135.074" gradientUnits="userSpaceOnUse" spreadMethod="reflect" id="fill73"><stop offset="0" stop-color="#81B861"/><stop offset="0.5" stop-color="#6FB242"/><stop offset="1" stop-color="#61A235"/></linearGradient><clipPath id="clip74"><rect x="1" y="1" width="32" height="34"/></clipPath><clipPath id="clip75"><rect x="0" y="0" width="32" height="33"/></clipPath><linearGradient x1="469" y1="118.065" x2="469" y2="135.074" gradientUnits="userSpaceOnUse" spreadMethod="reflect" id="fill76"><stop offset="0" stop-color="#81B861"/><stop offset="0.5" stop-color="#6FB242"/><stop offset="1" stop-color="#61A235"/></linearGradient><clipPath id="clip77"><rect x="1" y="1" width="32" height="34"/></clipPath><clipPath id="clip78"><rect x="0" y="0" width="32" height="33"/></clipPath><linearGradient x1="485" y1="118.065" x2="485" y2="135.074" gradientUnits="userSpaceOnUse" spreadMethod="reflect" id="fill79"><stop offset="0" stop-color="#71A6DB"/><stop offset="0.5" stop-color="#559BDB"/><stop offset="1" stop-color="#438AC9"/></linearGradient><clipPath id="clip80"><rect x="1" y="1" width="32" height="34"/></clipPath><clipPath id="clip81"><rect x="0" y="0" width="32" height="33"/></clipPath><linearGradient x1="501" y1="118.065" x2="501" y2="135.074" gradientUnits="userSpaceOnUse" spreadMethod="reflect" id="fill82"><stop offset="0" stop-color="#71A6DB"/><stop offset="0.5" stop-color="#559BDB"/><stop offset="1" stop-color="#438AC9"/></linearGradient><clipPath id="clip83"><rect x="1" y="1" width="32" height="34"/></clipPath><clipPath id="clip84"><rect x="0" y="0" width="32" height="33"/></clipPath><linearGradient x1="517" y1="118.065" x2="517" y2="135.074" gradientUnits="userSpaceOnUse" spreadMethod="reflect" id="fill85"><stop offset="0" stop-color="#71A6DB"/><stop offset="0.5" stop-color="#559BDB"/><stop offset="1" stop-color="#438AC9"/></linearGradient><clipPath id="clip86"><rect x="1" y="1" width="32" height="34"/></clipPath><clipPath id="clip87"><rect x="0" y="0" width="32" height="33"/></clipPath><linearGradient x1="533" y1="118.065" x2="533" y2="135.074" gradientUnits="userSpaceOnUse" spreadMethod="reflect" id="fill88"><stop offset="0" stop-color="#71A6DB"/><stop offset="0.5" stop-color="#559BDB"/><stop offset="1" stop-color="#438AC9"/></linearGradient><linearGradient x1="358.5" y1="26.5146" x2="358.5" y2="43.5239" gradientUnits="userSpaceOnUse" spreadMethod="reflect" id="fill89"><stop offset="0" stop-color="#9B9B9B"/><stop offset="0.5" stop-color="#8E8E8E"/><stop offset="1" stop-color="#797979"/></linearGradient><linearGradient x1="374.5" y1="26.5146" x2="374.5" y2="43.5239" gradientUnits="userSpaceOnUse" spreadMethod="reflect" id="fill90"><stop offset="0" stop-color="#9B9B9B"/><stop offset="0.5" stop-color="#8E8E8E"/><stop offset="1" stop-color="#797979"/></linearGradient><linearGradient x1="390.5" y1="26.5146" x2="390.5" y2="43.5239" gradientUnits="userSpaceOnUse" spreadMethod="reflect" id="fill91"><stop offset="0" stop-color="#9B9B9B"/><stop offset="0.5" stop-color="#8E8E8E"/><stop offset="1" stop-color="#797979"/></linearGradient><linearGradient x1="406.5" y1="26.5146" x2="406.5" y2="43.5239" gradientUnits="userSpaceOnUse" spreadMethod="reflect" id="fill92"><stop offset="0" stop-color="#9B9B9B"/><stop offset="0.5" stop-color="#8E8E8E"/><stop offset="1" stop-color="#797979"/></linearGradient><linearGradient x1="422.5" y1="26.5146" x2="422.5" y2="43.5239" gradientUnits="userSpaceOnUse" spreadMethod="reflect" id="fill93"><stop offset="0" stop-color="#9B9B9B"/><stop offset="0.5" stop-color="#8E8E8E"/><stop offset="1" stop-color="#797979"/></linearGradient><linearGradient x1="438.5" y1="26.5146" x2="438.5" y2="43.5239" gradientUnits="userSpaceOnUse" spreadMethod="reflect" id="fill94"><stop offset="0" stop-color="#9B9B9B"/><stop offset="0.5" stop-color="#8E8E8E"/><stop offset="1" stop-color="#797979"/></linearGradient><linearGradient x1="454.5" y1="26.5146" x2="454.5" y2="43.5239" gradientUnits="userSpaceOnUse" spreadMethod="reflect" id="fill95"><stop offset="0" stop-color="#9B9B9B"/><stop offset="0.5" stop-color="#8E8E8E"/><stop offset="1" stop-color="#797979"/></linearGradient><linearGradient x1="470.5" y1="26.5146" x2="470.5" y2="43.5239" gradientUnits="userSpaceOnUse" spreadMethod="reflect" id="fill96"><stop offset="0" stop-color="#9B9B9B"/><stop offset="0.5" stop-color="#8E8E8E"/><stop offset="1" stop-color="#797979"/></linearGradient><linearGradient x1="486" y1="26.5146" x2="486" y2="43.5239" gradientUnits="userSpaceOnUse" spreadMethod="reflect" id="fill97"><stop offset="0" stop-color="#9B9B9B"/><stop offset="0.5" stop-color="#8E8E8E"/><stop offset="1" stop-color="#797979"/></linearGradient><linearGradient x1="502.5" y1="26.5146" x2="502.5" y2="43.5239" gradientUnits="userSpaceOnUse" spreadMethod="reflect" id="fill98"><stop offset="0" stop-color="#9B9B9B"/><stop offset="0.5" stop-color="#8E8E8E"/><stop offset="1" stop-color="#797979"/></linearGradient><linearGradient x1="518.5" y1="26.5146" x2="518.5" y2="43.5239" gradientUnits="userSpaceOnUse" spreadMethod="reflect" id="fill99"><stop offset="0" stop-color="#9B9B9B"/><stop offset="0.5" stop-color="#8E8E8E"/><stop offset="1" stop-color="#797979"/></linearGradient><linearGradient x1="534.5" y1="26.5146" x2="534.5" y2="43.5239" gradientUnits="userSpaceOnUse" spreadMethod="reflect" id="fill100"><stop offset="0" stop-color="#9B9B9B"/><stop offset="0.5" stop-color="#8E8E8E"/><stop offset="1" stop-color="#797979"/></linearGradient></defs><g clip-path="url(#clip12)"><rect x="0" y="0" width="605" height="454.25" fill="#FFFFFF"/><text font-family="Times New Roman,Times New Roman_MSFontService,sans-serif" font-weight="400" font-size="24" transform="matrix(1 0 0 1.00055 38.1801 196)">Self-attentive<tspan font-size="24" x="36.0198" y="28.984">Probes             …</tspan></text><rect x="246.5" y="299.665" width="337" height="118.065" stroke="#000000" stroke-width="3.00165" stroke-miterlimit="8" fill="#FFFFFF"/><rect x="293.5" y="313.673" width="15.0001" height="16.0088" stroke="#4472C4" stroke-width="0.667034" stroke-miterlimit="8" fill="url(#fill13)"/><rect x="293.5" y="329.682" width="15.0001" height="16.0088" stroke="#4472C4" stroke-width="0.667034" stroke-miterlimit="8" fill="url(#fill14)"/><rect x="293.5" y="345.69" width="15.0001" height="16.0088" stroke="#4472C4" stroke-width="0.667034" stroke-miterlimit="8" fill="url(#fill15)"/><rect x="293.5" y="361.699" width="15.0001" height="16.0088" stroke="#4472C4" stroke-width="0.667034" stroke-miterlimit="8" fill="url(#fill16)"/><rect x="293.5" y="377.708" width="15.0001" height="16.0088" stroke="#4472C4" stroke-width="0.667034" stroke-miterlimit="8" fill="url(#fill17)"/><rect x="293.5" y="393.717" width="15.0001" height="16.0088" stroke="#4472C4" stroke-width="0.667034" stroke-miterlimit="8" fill="url(#fill18)"/><rect x="367.5" y="313.673" width="13.9999" height="16.0088" stroke="#70AD47" stroke-width="0.667034" stroke-miterlimit="8" fill="url(#fill19)"/><rect x="367.5" y="329.682" width="13.9999" height="16.0088" stroke="#70AD47" stroke-width="0.667034" stroke-miterlimit="8" fill="url(#fill20)"/><rect x="367.5" y="345.69" width="13.9999" height="16.0088" stroke="#70AD47" stroke-width="0.667034" stroke-miterlimit="8" fill="url(#fill21)"/><rect x="367.5" y="361.699" width="13.9999" height="16.0088" stroke="#70AD47" stroke-width="0.667034" stroke-miterlimit="8" fill="url(#fill22)"/><rect x="367.5" y="377.708" width="13.9999" height="16.0088" stroke="#70AD47" stroke-width="0.667034" stroke-miterlimit="8" fill="url(#fill23)"/><rect x="367.5" y="393.717" width="13.9999" height="16.0088" stroke="#70AD47" stroke-width="0.667034" stroke-miterlimit="8" fill="url(#fill24)"/><rect x="444.5" y="313.673" width="15" height="16.0088" stroke="#FFC000" stroke-width="0.667034" stroke-miterlimit="8" fill="url(#fill25)"/><rect x="444.5" y="329.682" width="15" height="16.0088" stroke="#FFC000" stroke-width="0.667034" stroke-miterlimit="8" fill="url(#fill26)"/><rect x="444.5" y="345.69" width="15" height="16.0088" stroke="#FFC000" stroke-width="0.667034" stroke-miterlimit="8" fill="url(#fill27)"/><rect x="444.5" y="361.699" width="15" height="16.0088" stroke="#FFC000" stroke-width="0.667034" stroke-miterlimit="8" fill="url(#fill28)"/><rect x="444.5" y="377.708" width="15" height="16.0088" stroke="#FFC000" stroke-width="0.667034" stroke-miterlimit="8" fill="url(#fill29)"/><rect x="444.5" y="393.717" width="15" height="16.0088" stroke="#FFC000" stroke-width="0.667034" stroke-miterlimit="8" fill="url(#fill30)"/><rect x="514.5" y="313.673" width="15.0001" height="16.0088" stroke="#ED7D31" stroke-width="0.667034" stroke-miterlimit="8" fill="url(#fill31)"/><rect x="514.5" y="329.682" width="15.0001" height="16.0088" stroke="#ED7D31" stroke-width="0.667034" stroke-miterlimit="8" fill="url(#fill32)"/><rect x="514.5" y="345.69" width="15.0001" height="16.0088" stroke="#ED7D31" stroke-width="0.667034" stroke-miterlimit="8" fill="url(#fill33)"/><rect x="514.5" y="361.699" width="15.0001" height="16.0088" stroke="#ED7D31" stroke-width="0.667034" stroke-miterlimit="8" fill="url(#fill34)"/><rect x="514.5" y="377.708" width="15.0001" height="16.0088" stroke="#ED7D31" stroke-width="0.667034" stroke-miterlimit="8" fill="url(#fill35)"/><rect x="514.5" y="393.717" width="15.0001" height="16.0088" stroke="#ED7D31" stroke-width="0.667034" stroke-miterlimit="8" fill="url(#fill36)"/><path d="M321.5 337.436 351 337.436 351 334.684 356.5 340.187 351 345.69 351 342.939 321.5 342.939Z" stroke="#000000" stroke-width="1.33407" stroke-miterlimit="8" fill-rule="evenodd"/><path d="M394.5 337.436 424 337.436 424 334.684 429.5 340.187 424 345.69 424 342.939 394.5 342.939Z" stroke="#000000" stroke-width="1.33407" stroke-miterlimit="8" fill-rule="evenodd"/><path d="M472.5 337.436 502 337.436 502 334.684 507.5 340.187 502 345.69 502 342.939 472.5 342.939Z" stroke="#000000" stroke-width="1.33407" stroke-miterlimit="8" fill-rule="evenodd"/><path d="M356.5 382.961 327 382.961 327 385.712 321.5 380.209 327 374.706 327 377.458 356.5 377.458Z" stroke="#000000" stroke-width="1.33407" stroke-miterlimit="8" fill-rule="evenodd"/><path d="M429.5 382.961 400 382.961 400 385.712 394.5 380.209 400 374.706 400 377.458 429.5 377.458Z" stroke="#000000" stroke-width="1.33407" stroke-miterlimit="8" fill-rule="evenodd"/><path d="M507.5 383.961 478 383.961 478 386.713 472.5 381.21 478 375.707 478 378.458 507.5 378.458Z" stroke="#000000" stroke-width="1.33407" stroke-miterlimit="8" fill-rule="evenodd"/><text font-family="Times New Roman,Times New Roman_MSFontService,sans-serif" font-weight="400" font-size="24" transform="matrix(1 0 0 1.00055 72.6268 373)">BiRNN</text><rect x="212.5" y="257.642" width="16" height="17.0094" stroke="#000000" stroke-width="0.667034" stroke-miterlimit="8" fill="url(#fill37)"/><rect x="228.5" y="257.642" width="16" height="17.0094" stroke="#000000" stroke-width="0.667034" stroke-miterlimit="8" fill="url(#fill38)"/><rect x="244.5" y="257.642" width="16" height="17.0094" stroke="#000000" stroke-width="0.667034" stroke-miterlimit="8" fill="url(#fill39)"/><rect x="260.5" y="257.642" width="16" height="17.0094" stroke="#000000" stroke-width="0.667034" stroke-miterlimit="8" fill="url(#fill40)"/><rect x="188.5" y="173.596" width="16" height="17.0094" stroke="#000000" stroke-width="0.667034" stroke-miterlimit="8" fill="url(#fill41)"/><rect x="204.5" y="173.596" width="16" height="17.0094" stroke="#000000" stroke-width="0.667034" stroke-miterlimit="8" fill="url(#fill42)"/><rect x="220.5" y="173.596" width="16" height="17.0094" stroke="#000000" stroke-width="0.667034" stroke-miterlimit="8" fill="url(#fill43)"/><rect x="236.5" y="173.596" width="16" height="17.0094" stroke="#000000" stroke-width="0.667034" stroke-miterlimit="8" fill="url(#fill44)"/><rect x="500.5" y="257.642" width="16" height="17.0094" stroke="#A5A5A5" stroke-width="0.667034" stroke-miterlimit="8" fill="url(#fill45)"/><rect x="516.5" y="257.642" width="16" height="17.0094" stroke="#A5A5A5" stroke-width="0.667034" stroke-miterlimit="8" fill="url(#fill46)"/><rect x="532.5" y="257.642" width="16" height="17.0094" stroke="#A5A5A5" stroke-width="0.667034" stroke-miterlimit="8" fill="url(#fill47)"/><rect x="548.5" y="257.642" width="16" height="17.0094" stroke="#A5A5A5" stroke-width="0.667034" stroke-miterlimit="8" fill="url(#fill48)"/><rect x="324.5" y="173.596" width="16" height="17.0094" stroke="#A5A5A5" stroke-width="0.667034" stroke-miterlimit="8" fill="url(#fill49)"/><rect x="340.5" y="173.596" width="16" height="17.0094" stroke="#A5A5A5" stroke-width="0.667034" stroke-miterlimit="8" fill="url(#fill50)"/><rect x="356.5" y="173.596" width="16" height="17.0094" stroke="#A5A5A5" stroke-width="0.667034" stroke-miterlimit="8" fill="url(#fill51)"/><rect x="372.5" y="173.596" width="16" height="17.0094" stroke="#A5A5A5" stroke-width="0.667034" stroke-miterlimit="8" fill="url(#fill52)"/><path d="M253 181.099 317.226 181.099 317.226 183.102 253 183.101ZM315.892 178.096 323.896 182.1 315.892 186.105Z"/><path d="M9.40299e-07-1.00055 216.881-1.00035 216.881 1.00076-9.40299e-07 1.00055ZM215.547-4.002 223.552 0.00021009 215.547 4.00241Z" transform="matrix(1 0 0 -1.00055 276 265.146)"/><path d="M0.621024-0.243442 40.2099 100.748 38.9679 101.235-0.621024 0.243442ZM42.8282 98.289 42.0234 107.202 35.3759 101.21Z" transform="matrix(1 0 0 -1.00055 306.5 297.866)"/><path d="M515.661 298.428 353.759 194.765 354.478 193.64 516.38 297.304ZM353.085 198.295 348.5 190.605 357.399 191.549Z"/><path d="M0.0773261-0.662537 208.999 23.7211 208.844 25.0462-0.0773261 0.662537ZM208.061 20.2538 215.547 25.157 207.133 28.2043Z" transform="matrix(1 0 0 -1.00055 308.5 299.822)"/><path d="M0.61395-0.260768 8.01126 17.1554 6.78336 17.6769-0.61395 0.260768ZM10.5595 14.6236 10.005 23.5557 3.19207 17.7529Z" transform="matrix(1 0 0 -1.00055 514.5 298.22)"/><g clip-path="url(#clip53)" filter="url(#fx0)" transform="translate(341 112)"><g clip-path="url(#clip54)"><rect x="7.99994" y="8.06725" width="16.0001" height="17.0094" fill="#FF0000"/></g></g><rect x="349" y="118.065" width="16.0001" height="17.0094" fill="url(#fill55)"/><g clip-path="url(#clip56)" filter="url(#fx1)" transform="translate(357 112)"><g clip-path="url(#clip57)"><rect x="8.00006" y="8.06725" width="16" height="17.0094" fill="#FF0000"/></g></g><rect x="365" y="118.065" width="16" height="17.0094" fill="url(#fill58)"/><g clip-path="url(#clip59)" filter="url(#fx2)" transform="translate(373 112)"><g clip-path="url(#clip60)"><rect x="8.00006" y="8.06725" width="16" height="17.0094" fill="#FF0000"/></g></g><rect x="381" y="118.065" width="16" height="17.0094" fill="url(#fill61)"/><g clip-path="url(#clip62)" filter="url(#fx3)" transform="translate(389 112)"><g clip-path="url(#clip63)"><rect x="8.00003" y="8.06725" width="16" height="17.0094" fill="#FF0000"/></g></g><rect x="397" y="118.065" width="16" height="17.0094" fill="url(#fill64)"/><g clip-path="url(#clip65)" filter="url(#fx4)" transform="translate(405 112)"><g clip-path="url(#clip66)"><rect x="8.00003" y="8.06725" width="16" height="17.0094" fill="#FF0000"/></g></g><rect x="413" y="118.065" width="16" height="17.0094" fill="url(#fill67)"/><g clip-path="url(#clip68)" filter="url(#fx5)" transform="translate(421 112)"><g clip-path="url(#clip69)"><rect x="8.00003" y="8.06725" width="16" height="17.0094" fill="#FF0000"/></g></g><rect x="429" y="118.065" width="16" height="17.0094" fill="url(#fill70)"/><g clip-path="url(#clip71)" filter="url(#fx6)" transform="translate(437 112)"><g clip-path="url(#clip72)"><rect x="8.00003" y="8.06725" width="16" height="17.0094" fill="#FF0000"/></g></g><rect x="445" y="118.065" width="16" height="17.0094" fill="url(#fill73)"/><g clip-path="url(#clip74)" filter="url(#fx7)" transform="translate(453 112)"><g clip-path="url(#clip75)"><rect x="8.00003" y="8.06725" width="16" height="17.0094" fill="#FF0000"/></g></g><rect x="461" y="118.065" width="16" height="17.0094" fill="url(#fill76)"/><g clip-path="url(#clip77)" filter="url(#fx8)" transform="translate(469 112)"><g clip-path="url(#clip78)"><rect x="8.00003" y="8.06725" width="16" height="17.0094" fill="#FF0000"/></g></g><rect x="477" y="118.065" width="16" height="17.0094" fill="url(#fill79)"/><g clip-path="url(#clip80)" filter="url(#fx9)" transform="translate(485 112)"><g clip-path="url(#clip81)"><rect x="8.00003" y="8.06725" width="16" height="17.0094" fill="#FF0000"/></g></g><rect x="493" y="118.065" width="16" height="17.0094" fill="url(#fill82)"/><g clip-path="url(#clip83)" filter="url(#fx10)" transform="translate(501 112)"><g clip-path="url(#clip84)"><rect x="8.00003" y="8.06725" width="16" height="17.0094" fill="#FF0000"/></g></g><rect x="509" y="118.065" width="16" height="17.0094" fill="url(#fill85)"/><g clip-path="url(#clip86)" filter="url(#fx11)" transform="translate(517 112)"><g clip-path="url(#clip87)"><rect x="8" y="8.06725" width="16" height="17.0094" fill="#FF0000"/></g></g><rect x="525" y="118.065" width="16" height="17.0094" fill="url(#fill88)"/><text font-family="Times New Roman,Times New Roman_MSFontService,sans-serif" font-weight="400" font-size="24" transform="matrix(1 0 0 1.00055 29.1458 131)">Context Vectors</text><path d="M0.309016-0.591138 67.2947 34.4254 66.6766 35.6077-0.309016 0.591138ZM67.6575 30.8518 72.8971 38.1068 63.9493 37.9454Z" transform="matrix(1 0 0 -1.00055 364.5 173.702)"/><path d="M539.618 257.653 441.293 141.105 442.312 140.244 540.638 256.792ZM439.605 144.278 437.5 135.575 445.721 139.112Z"/><rect x="350.5" y="26.5146" width="16" height="17.0094" stroke="#000000" stroke-width="0.667034" stroke-miterlimit="8" fill="url(#fill89)"/><rect x="366.5" y="26.5146" width="16" height="17.0094" stroke="#000000" stroke-width="0.667034" stroke-miterlimit="8" fill="url(#fill90)"/><rect x="382.5" y="26.5146" width="16" height="17.0094" stroke="#000000" stroke-width="0.667034" stroke-miterlimit="8" fill="url(#fill91)"/><rect x="398.5" y="26.5146" width="16" height="17.0094" stroke="#000000" stroke-width="0.667034" stroke-miterlimit="8" fill="url(#fill92)"/><rect x="414.5" y="26.5146" width="16" height="17.0094" stroke="#000000" stroke-width="0.667034" stroke-miterlimit="8" fill="url(#fill93)"/><rect x="430.5" y="26.5146" width="16" height="17.0094" stroke="#000000" stroke-width="0.667034" stroke-miterlimit="8" fill="url(#fill94)"/><rect x="446.5" y="26.5146" width="16" height="17.0094" stroke="#000000" stroke-width="0.667034" stroke-miterlimit="8" fill="url(#fill95)"/><rect x="462.5" y="26.5146" width="16" height="17.0094" stroke="#000000" stroke-width="0.667034" stroke-miterlimit="8" fill="url(#fill96)"/><rect x="477.5" y="26.5146" width="16.9999" height="17.0094" stroke="#000000" stroke-width="0.667034" stroke-miterlimit="8" fill="url(#fill97)"/><rect x="494.5" y="26.5146" width="16" height="17.0094" stroke="#000000" stroke-width="0.667034" stroke-miterlimit="8" fill="url(#fill98)"/><rect x="510.5" y="26.5146" width="16" height="17.0094" stroke="#000000" stroke-width="0.667034" stroke-miterlimit="8" fill="url(#fill99)"/><rect x="526.5" y="26.5146" width="16" height="17.0094" stroke="#000000" stroke-width="0.667034" stroke-miterlimit="8" fill="url(#fill100)"/><path d="M1.50083-3.99241e-06 1.50091 31.9843-1.50074 31.9843-1.50083 3.99241e-06ZM4.50256 30.4834 0.000105045 39.4884-4.5024 30.4835Z" transform="matrix(1 0 0 -1.00055 444.5 100.044)"/><text font-family="Times New Roman,Times New Roman_MSFontService,sans-serif" font-weight="400" font-size="24" transform="matrix(1 0 0 1.00055 52.1675 39)">Predictions</text></g></svg>